<?xml version="1.0" encoding="UTF-8" standalone="no"?><!DOCTYPE svg PUBLIC "-//W3C//DTD SVG 1.1//EN" "http://www.w3.org/Graphics/SVG/1.1/DTD/svg11.dtd"><svg width="100%" height="100%" viewBox="0 0 256 256" version="1.1" xmlns="http://www.w3.org/2000/svg" xmlns:xlink="http://www.w3.org/1999/xlink" xml:space="preserve" xmlns:serif="http://www.serif.com/" style="fill-rule:evenodd;clip-rule:evenodd;stroke-linejoin:round;stroke-miterlimit:2;"><path d="M252,28.8c0,-13.687 -11.113,-24.8 -24.8,-24.8l-198.4,0c-13.687,0 -24.8,11.113 -24.8,24.8l0,198.4c0,13.687 11.113,24.8 24.8,24.8l198.4,-0c13.687,-0 24.8,-11.113 24.8,-24.8l0,-198.4Z" style="fill:#363636;"/><path id="Icon_Texture" d="M204.293,97.184l0.339,1.011l0.292,1.01l0.292,1.154l0.229,1.145l0.11,1.162l0.113,1.289l0.06,1.153l0.059,1.432l-0.059,1.146l-0.06,1.304l-0.113,1.146l-0.11,1.305l-0.229,1.01l-0.292,1.146l-0.292,1.01l-0.339,1.01l-0.399,0.74l-0.399,0.859l-0.399,0.74l-0.458,0.581l-0.399,0.286l-0.509,0.295l-0.458,0.151l-0.566,0.135l-0.449,-0.135l-0.565,-0.151l-0.399,-0.295l-0.509,-0.286l-0.398,-0.581l-0.459,-0.74l-0.339,-0.859l-0.399,-0.74l-0.399,-1.01l-0.229,-1.01l-0.292,-1.146l-0.17,-1.01l-0.175,-1.305l-0.17,-1.146l-0.053,-1.304l-0,-2.578l0.053,-1.153l0.17,-1.289l0.175,-1.162l0.17,-1.145l0.292,-1.154l0.229,-1.01l0.399,-1.011l0.399,-0.739l0.339,-0.86l0.459,-0.739l0.398,-0.43l0.509,-0.294l0.399,-0.43l0.565,-0.135l1.018,-0l0.458,0.135l0.509,0.43l0.399,0.294l0.458,0.43l0.399,0.739l0.399,0.86l0.396,0.739Zm28.262,35.076l0,30.056l-36.832,-0l-0,-12.944l8.394,-21.432l4.205,10.645l13.336,-34.352l10.897,28.027Zm2.513,-47.43l-41.842,-0l-0.339,0.151l-0.229,0.565l-0.23,0.739l-0.059,0.74l-0,81.806l0.059,0.86l0.23,0.74l0.229,0.429l0.339,0.151l41.823,0l0.339,-0.151l0.229,-0.429l0.17,-0.74l0.059,-0.86l0,-81.845l-0.059,-0.74l-0.17,-0.74l-0.229,-0.565l-0.32,-0.111Zm4.198,2.148l0,81.853l-0.06,1.146l-0.059,1.01l-0.054,1.011l-0.175,1.01l-0.17,0.859l-0.229,1.011l-0.223,0.74l-0.292,0.875l-0.339,0.739l-0.292,0.74l-0.393,0.43l-0.345,0.43l-0.34,0.429l-0.449,0.279l-0.345,0.151l-42.708,-0l-0.399,-0.151l-0.399,-0.279l-0.339,-0.429l-0.399,-0.43l-0.339,-0.43l-0.292,-0.74l-0.345,-0.739l-0.34,-0.875l-0.169,-0.74l-0.229,-1.011l-0.23,-0.859l-0.22,-2.021l-0.059,-1.01l-0,-83.994l0.059,-1.161l0.11,-0.86l0.11,-1.01l0.23,-1.01l0.229,-0.859l0.169,-0.876l0.34,-0.859l0.345,-0.58l0.292,-0.74l0.339,-0.581l0.399,-0.43l0.339,-0.278l0.399,-0.294l0.399,-0.136l42.73,0l0.345,0.136l0.449,0.294l0.34,0.278l0.345,0.43l0.392,0.581l0.293,0.74l0.339,0.58l0.292,0.859l0.223,0.876l0.229,0.859l0.17,1.01l0.175,1.01l0.054,0.86l0.059,1.161l0.038,0.995Z" style="fill:#858585;"/><path d="M112.283,152.365l76.751,17.332l-0,0.28l0.059,1.01l0.072,0.658l-76.882,-17.361l0,-1.919Zm0,-2.744l123.51,19.979l-0.006,0.091l-0.17,0.74l-0.229,0.429l-0.339,0.151l-5.181,0l-117.585,-19.02l0,-2.37Zm0,-8.627l122.2,-56.164l0.585,-0l0.32,0.111l0.229,0.565l0.17,0.74l0.043,0.539l-123.547,56.784l0,-2.575Zm0,-6.902l76.823,-49.369l-0.013,0.099l-0.059,1.161l-0,1.011l-76.751,49.322l0,-2.224Z" style="fill:#6f6f6f;"/><path id="Camera" d="M90.528,149.3l-0,11.808c-0,5.288 -4.351,9.639 -9.639,9.639l-50.287,-0c-5.288,-0 -9.639,-4.351 -9.639,-9.639l-0,-24.194c-0,-5.288 4.351,-9.639 9.639,-9.639l50.296,-0c5.288,-0 9.639,4.351 9.639,9.639l0,10.458l21.746,-21.736l0,45.429l-21.755,-21.765Zm-75.262,-37.959c0,-8.349 6.871,-15.22 15.22,-15.22c8.35,0 15.22,6.871 15.22,15.22c0,8.35 -6.87,15.221 -15.22,15.221c-0.003,-0 -0.006,-0 -0.009,-0c-8.345,-0 -15.211,-6.867 -15.211,-15.211c0,-0.003 0,-0.006 0,-0.01Zm36.137,-7.055c-0,-10.735 8.833,-19.568 19.567,-19.568c10.734,0 19.567,8.833 19.567,19.568c0,10.734 -8.833,19.567 -19.567,19.567c-10.734,-0 -19.567,-8.833 -19.567,-19.567Z" style="fill:#adadad;fill-rule:nonzero;"/></svg>